# File created by Blade
# Date/Time:  Thu Jan 22 16:52:56 2015
# Frame Rate: 120.000 fps
#------------------------------------------------------
:FULLY-SPECIFIED
:DEGREES
1366
root 3.039440 3.536247 -0.485314 -35.742822 -0.804972 7.027765
RightUpLeg -46.861655 -30.346833 -33.087792
RightLeg 4.032498 -0.000000 -0.000000
RightFoot -4.215194 -26.481176 33.635293
RightToeBase -1.232886 -0.000000 0.000000
LeftUpLeg -43.951395 29.697338 16.470871
LeftLeg -0.276326 -0.000000 0.000000
LeftFoot 12.013354 25.177343 -32.666077
LeftToeBase -0.008465 -0.000000 0.000000
Spine 77.047181 -14.927337 -3.580365
RightShoulder 22.361306 51.269091 -33.245157
RightArm 15.478660 19.054405 41.113748
RightForeArm -18.491003 -0.000000 39.179399
RightHand 1.411783 0.000000 -7.593546
RightHandThumb1 -24.326973 -0.000000 -32.862282
LeftShoulder -2.734621 8.484973 45.474525
LeftArm 95.919592 -47.278522 -49.315044
LeftForeArm 31.883593 -0.000000 23.028558
LeftHand -12.461952 -0.000000 2.540051
LeftHandThumb1 -26.253704 0.000000 33.147579
Head 54.377920 9.145127 24.574416
1367
root 3.052901 3.524716 -0.487272 -35.580704 -0.668094 6.911167
RightUpLeg -46.881154 -30.558777 -33.111211
RightLeg 4.017553 -0.000000 -0.000000
RightFoot -4.166691 -26.567139 33.638197
RightToeBase -0.976160 -0.000000 0.000000
LeftUpLeg -44.304458 29.667030 16.227335
LeftLeg -0.242442 -0.000000 0.000000
LeftFoot 12.012450 25.229867 -32.603509
LeftToeBase -0.027053 -0.000000 0.000000
Spine 77.087395 -14.812666 -3.713009
RightShoulder 22.748198 51.506197 -33.107854
RightArm 15.383141 18.781319 41.131784
RightForeArm -18.431596 -0.000000 39.074692
RightHand 1.429030 -0.000000 -7.424591
RightHandThumb1 -24.326973 -0.000000 -32.862282
LeftShoulder -2.568069 8.707511 45.289257
LeftArm 95.684765 -47.231323 -49.215596
LeftForeArm 31.742173 -0.000000 22.571851
LeftHand -12.403711 -0.000000 2.444137
LeftHandThumb1 -26.253704 0.000000 33.147579
Head 54.289787 9.541091 24.328632
1368
root 3.058957 3.513470 -0.488121 -35.427884 -0.589040 6.830517
RightUpLeg -46.915181 -30.661573 -33.149300
RightLeg 4.018790 -0.000000 -0.000000
RightFoot -4.225420 -26.623348 33.902950
RightToeBase -0.852061 -0.000000 0.000000
LeftUpLeg -44.636687 29.754726 15.971314
LeftLeg -0.209940 -0.000000 0.000000
LeftFoot 12.019240 25.205124 -32.639055
LeftToeBase -0.003942 -0.000000 0.000000
Spine 77.113434 -14.538405 -3.764437
RightShoulder 22.873872 51.624485 -33.076261
RightArm 15.498906 18.600957 41.285678
RightForeArm -18.415045 -0.000000 38.802849
RightHand 1.493553 0.000000 -7.231014
RightHandThumb1 -24.326973 -0.000000 -32.862282
LeftShoulder -2.341039 8.811003 45.226132
LeftArm 95.449612 -47.108962 -49.165908
LeftForeArm 31.679688 0.000000 22.143568
LeftHand -12.357902 -0.000000 2.313038
LeftHandThumb1 -26.253704 0.000000 33.147579
Head 54.173668 9.779960 24.246140
1369
root 3.067098 3.505546 -0.487113 -35.289872 -0.481483 6.717438
RightUpLeg -46.948690 -30.874842 -33.118406
RightLeg 4.018358 -0.000000 -0.000000
RightFoot -4.162360 -26.635420 33.850800
RightToeBase -0.483157 -0.000000 0.000000
LeftUpLeg -44.959241 29.798977 15.721282
LeftLeg -0.193327 -0.000000 0.000000
LeftFoot 12.034414 25.174353 -32.647757
LeftToeBase -0.019548 -0.000000 0.000000
Spine 77.187967 -14.346716 -3.830719
RightShoulder 23.066916 51.789501 -33.038587
RightArm 15.544637 18.428146 41.398625
RightForeArm -18.221797 -0.000000 38.600250
RightHand 1.504374 -0.000000 -6.948485
RightHandThumb1 -24.326973 -0.000000 -32.862282
LeftShoulder -2.150571 8.974566 45.109292
LeftArm 95.206511 -47.026675 -49.079843
LeftForeArm 31.649578 -0.000000 21.724829
LeftHand -12.340834 -0.000000 2.163176
LeftHandThumb1 -26.253704 0.000000 33.147579
Head 54.017783 10.108116 24.125008
1370
root 3.076652 3.497650 -0.486576 -35.149879 -0.366037 6.608065
RightUpLeg -46.938269 -31.052280 -33.138788
RightLeg 3.976687 -0.000000 -0.000000
RightFoot -4.089755 -26.714633 33.781474
RightToeBase -0.233231 -0.000000 0.000000
LeftUpLeg -45.290952 29.841995 15.452723
LeftLeg -0.171115 -0.000000 0.000000
LeftFoot 12.024081 25.162402 -32.681098
LeftToeBase -0.000697 -0.000000 0.000000
Spine 77.293401 -14.178119 -3.941094
RightShoulder 23.304738 51.990840 -32.955800
RightArm 15.617767 18.321526 41.581348
RightForeArm -18.317883 0.000000 38.420003
RightHand 1.584871 -0.000000 -6.756445
RightHandThumb1 -24.326973 -0.000000 -32.862282
LeftShoulder -2.007123 9.189309 44.990036
LeftArm 95.010134 -46.957886 -49.037830
LeftForeArm 31.539738 -0.000000 21.320767
LeftHand -12.325656 -0.000000 2.025230
LeftHandThumb1 -26.253704 0.000000 33.147579
Head 53.855103 10.483306 23.918583
1371
root 3.085645 3.502829 -0.482754 -35.069525 -0.219586 6.391671
RightUpLeg -46.733028 -31.269117 -33.171630
RightLeg 3.873624 -0.000000 -0.000000
RightFoot -3.956127 -26.761420 33.442614
RightToeBase 0.085875 -0.000000 -0.000000
LeftUpLeg -45.554311 29.788173 15.272479
LeftLeg -0.183382 -0.000000 0.000000
LeftFoot 12.024770 25.157724 -32.722904
LeftToeBase -0.059870 -0.000000 0.000000
Spine 77.476092 -14.112608 -3.943133
RightShoulder 23.552260 52.207354 -32.876780
RightArm 15.618415 17.952108 41.567413
RightForeArm -18.428911 -0.000000 38.217927
RightHand 1.396067 0.000000 -6.689080
RightHandThumb1 -24.326973 -0.000000 -32.862282
LeftShoulder -1.773394 9.248409 44.851896
LeftArm 94.615609 -46.874728 -48.818914
LeftForeArm 31.494656 0.000000 20.912023
LeftHand -12.288640 -0.000000 1.823163
LeftHandThumb1 -26.253704 0.000000 33.147579
Head 53.679032 10.803765 23.704569
1372
root 3.090778 3.498391 -0.482280 -34.932054 -0.145625 6.223400
RightUpLeg -46.772739 -31.528239 -32.997464
RightLeg 3.835011 -0.000000 -0.000000
RightFoot -3.826977 -26.769225 33.231693
RightToeBase 0.333175 -0.000000 -0.000000
LeftUpLeg -45.851616 29.806164 15.127268
LeftLeg -0.165254 -0.000000 0.000000
LeftFoot 11.951140 25.193829 -32.834060
LeftToeBase 0.059231 -0.000000 -0.000000
Spine 77.600135 -13.941729 -3.921608
RightShoulder 23.693135 52.353333 -32.876178
RightArm 15.720298 17.772950 41.689365
RightForeArm -18.397162 -0.000000 38.010614
RightHand 1.419795 -0.000000 -6.424997
RightHandThumb1 -24.326973 -0.000000 -32.862282
LeftShoulder -1.583643 9.323652 44.757374
LeftArm 94.333522 -46.746321 -48.750567
LeftForeArm 31.485393 -0.000000 20.552232
LeftHand -12.389878 -0.000000 1.544586
LeftHandThumb1 -26.253704 0.000000 33.147579
Head 53.559651 11.184038 23.582850
1373
root 3.098662 3.497910 -0.479486 -34.805308 -0.019182 6.057024
RightUpLeg -46.656663 -31.685480 -33.048594
RightLeg 3.758530 -0.000000 -0.000000
RightFoot -3.845703 -26.885051 33.425832
RightToeBase 0.343103 -0.000000 -0.000000
LeftUpLeg -46.167601 29.807193 14.906866
LeftLeg -0.145149 -0.000000 0.000000
LeftFoot 11.932255 25.201587 -32.865988
LeftToeBase 0.127902 -0.000000 -0.000000
Spine 77.749323 -13.810936 -3.956590
RightShoulder 23.955438 52.545762 -32.752157
RightArm 15.751994 17.607092 41.771356
RightForeArm -18.516887 -0.000000 37.855562
RightHand 1.404150 0.000000 -6.162016
RightHandThumb1 -24.326973 -0.000000 -32.862282
LeftShoulder -1.378465 9.454474 44.634500
LeftArm 94.107448 -46.677373 -48.658244
LeftForeArm 31.517025 -0.000000 20.135645
LeftHand -12.453018 0.000000 1.269212
LeftHandThumb1 -26.253704 0.000000 33.147579
Head 53.420321 11.500033 23.461694
1374
root 3.111793 3.489023 -0.478121 -34.628083 0.109952 5.948647
RightUpLeg -46.619818 -31.806189 -33.167991
RightLeg 3.716256 -0.000000 -0.000000
RightFoot -3.833387 -27.097612 33.440863
RightToeBase 0.231648 -0.000000 -0.000000
LeftUpLeg -46.549429 29.832314 14.619348
LeftLeg -0.095138 -0.000000 0.000000
LeftFoot 11.873715 25.257733 -32.958439
LeftToeBase 0.012205 -0.000000 -0.000000
Spine 77.841633 -13.639608 -4.062438
RightShoulder 24.185063 52.689602 -32.641784
RightArm 15.846711 17.445767 41.897135
RightForeArm -18.579554 -0.000000 37.679483
RightHand 1.417393 -0.000000 -5.858467
RightHandThumb1 -24.326973 -0.000000 -32.862282
LeftShoulder -1.206051 9.567546 44.544574
LeftArm 93.870277 -46.540957 -48.586086
LeftForeArm 31.524687 0.000000 19.741182
LeftHand -12.514882 -0.000000 0.975723
LeftHandThumb1 -26.253704 0.000000 33.147579
Head 53.332730 11.828497 23.396608
